<?xml version="1.0" encoding="UTF-8" standalone="no"?>
<svg xmlns:dc="http://purl.org/dc/elements/1.1/" xmlns:cc="http://creativecommons.org/ns#" xmlns:rdf="http://www.w3.org/1999/02/22-rdf-syntax-ns#" xmlns:svg="http://www.w3.org/2000/svg" xmlns="http://www.w3.org/2000/svg" xmlns:sodipodi="http://sodipodi.sourceforge.net/DTD/sodipodi-0.dtd" xmlns:inkscape="http://www.inkscape.org/namespaces/inkscape" viewBox="0 0 268 105" version="1.1" id="svg45" sodipodi:docname="aston-logo.svg" inkscape:version="0.92.3 (2405546, 2018-03-11)">
  <metadata id="metadata51">
    <rdf:RDF>
      <cc:Work rdf:about="">
        <dc:format>image/svg+xml</dc:format>
        <dc:type rdf:resource="http://purl.org/dc/dcmitype/StillImage"/>
      </cc:Work>
    </rdf:RDF>
  </metadata>
  <defs id="defs49"/>
  <sodipodi:namedview pagecolor="#ffffff" bordercolor="#666666" borderopacity="1" objecttolerance="10" gridtolerance="10" guidetolerance="10" inkscape:pageopacity="0" inkscape:pageshadow="2" inkscape:window-width="1920" inkscape:window-height="1017" id="namedview47" showgrid="false" inkscape:zoom="2.9972884" inkscape:cx="98.127849" inkscape:cy="48.147707" inkscape:window-x="-8" inkscape:window-y="-8" inkscape:window-maximized="1" inkscape:current-layer="svg45"/>
  <title id="title2">Aston Uni logo</title>
  <polygon style="fill:#810f8c;fill-rule:evenodd;stroke:none;stroke-width:1;fill-opacity:1" class="logo-arrow" points="8.2609319,15.006849 51.246595,43.630137 90.101792,0.047945205 " id="polygon4"/>
  <path style="fill:#000000;fill-rule:evenodd;stroke:none;stroke-width:1" inkscape:connector-curvature="0" id="path6" d="m 244.70609,68.417808 c 1.44086,0 2.64158,-0.431507 3.8423,-1.150685 v 2.636987 c -1.24875,0.719178 -2.88172,1.150684 -4.27456,1.150684 -3.60215,0 -5.85949,-2.061643 -5.85949,-5.609589 V 54.993151 h -2.92975 l 6.33978,-7.095891 v 4.410959 h 5.76344 v 2.684932 h -5.76344 V 65.20548 c 0,2.39726 1.39283,3.212328 2.88172,3.212328"/>
  <path style="fill:#000000;fill-rule:evenodd;stroke:none;stroke-width:1" inkscape:connector-curvature="0" id="path8" d="m 128.23656,43.630137 v 16.493151 c 0,3.5 -0.86452,6.280822 -2.88172,8.29452 -1.72903,1.773973 -4.56273,2.732877 -8.06882,2.732877 -3.55412,0 -6.38781,-0.958904 -8.11684,-2.732877 -1.96918,-2.013698 -2.8337,-4.79452 -2.8337,-8.342466 V 49.527397 c 0,-3.020548 -0.14408,-5.082192 -2.11326,-5.849315 v -0.04795 h 5.95556 v 16.493151 c 0,2.732876 0.52831,4.79452 1.87312,6.136986 1.29677,1.29452 3.07383,1.965753 5.33118,1.965753 2.20932,0 4.03441,-0.719178 5.28315,-1.965753 1.34481,-1.342466 1.87312,-3.40411 1.87312,-6.136986 V 43.630137 Z"/>
  <path style="fill:#000000;fill-rule:evenodd;stroke:none;stroke-width:1" inkscape:connector-curvature="0" id="path10" d="m 133.42366,56.431507 c 0,-1.821918 -0.14409,-3.356165 -1.92115,-3.979452 v -0.143836 h 5.09104 l 0.0961,2.828767 c 1.77706,-2.828767 4.3706,-3.308219 6.24372,-3.308219 1.44086,0 6.05162,0.479452 6.05162,6.952055 v 11.79452 h -3.45807 v -11.79452 c 0,-2.684932 -1.44086,-4.267123 -3.84229,-4.267123 -1.87312,0 -3.65018,1.19863 -4.8509,3.212328 v 12.849315 h -3.45806 l 0.048,-14.143835"/>
  <path style="fill:#000000;fill-rule:evenodd;stroke:none;stroke-width:1" inkscape:connector-curvature="0" id="path12" d="M 157.72616,52.356164 V 70.623288 H 154.2681 V 56.479452 c 0,-1.821918 -0.14409,-3.356164 -1.92115,-3.979452 v -0.143836 z"/>
  <path style="fill:#000000;fill-rule:evenodd;stroke:none;stroke-width:1;fill-opacity:1" inkscape:connector-curvature="0" id="path14" d="m 153.5957,46.027397 c 0,-1.19863 0.96057,-2.157534 2.16129,-2.157534 1.20072,0 2.16129,0.958904 2.16129,2.157534 0,1.19863 -0.96057,2.157534 -2.16129,2.157534 -1.20072,0 -2.16129,-0.958904 -2.16129,-2.157534"/>
  <path style="fill:#000000;fill-rule:evenodd;stroke:none;stroke-width:1" inkscape:connector-curvature="0" id="path16" d="m 232.6509,52.356164 v 18.267124 h -3.45807 V 56.479452 c 0,-1.821918 -0.14408,-3.356164 -1.92115,-3.979452 v -0.143836 z"/>
  <path style="fill:#000000;fill-rule:evenodd;stroke:none;stroke-width:1" inkscape:connector-curvature="0" id="path18" d="m 228.4724,46.027397 c 0,-1.19863 0.96057,-2.157534 2.16129,-2.157534 1.20072,0 2.16129,0.958904 2.16129,2.157534 0,1.19863 -0.96057,2.157534 -2.16129,2.157534 -1.20072,0 -2.16129,-0.958904 -2.16129,-2.157534"/>
  <path style="fill:#000000;fill-rule:evenodd;stroke:none;stroke-width:1" inkscape:connector-curvature="0" id="path20" d="m 177.89821,52.356164 -7.87671,18.315069 h -1.20071 l -6.5319,-14.479452 c -0.72043,-1.630137 -1.58495,-3.260274 -2.83369,-3.739726 v -0.143836 h 4.80286 l 4.22653,9.924658 c 0.24014,0.527397 0.76846,1.773972 1.05663,2.924657 0.24014,-1.150685 0.72043,-2.253424 0.96057,-2.924657 l 3.93835,-9.924658 z"/>
  <path style="fill:#000000;fill-rule:nonzero;stroke:none;stroke-width:1" inkscape:connector-curvature="0" id="path22" d="m 182.60502,59.547945 h 9.89391 c -0.24015,-3.212329 -1.96918,-5.082192 -4.75484,-5.082192 -2.73764,0 -4.75484,1.965754 -5.13907,5.082192 z m -0.14409,2.30137 c 0.24014,3.883562 2.64158,6.184932 5.8595,6.424658 2.54552,0.239726 4.70681,-0.383562 6.48387,-1.438357 l 0.43226,2.589041 c -1.87312,1.10274 -4.1785,1.630137 -6.8681,1.630137 -5.57133,0 -9.46165,-3.931506 -9.46165,-9.589041 0,-5.465753 3.79426,-9.589041 8.83728,-9.589041 5.18709,0 8.11684,3.356165 8.11684,9.20548 v 0.767123 z"/>
  <path style="fill:#000000;fill-rule:evenodd;stroke:none;stroke-width:1" inkscape:connector-curvature="0" id="path24" d="m 208.06021,55.041096 c -3.0258,0.191781 -4.56272,2.924657 -4.56272,7.09589 v 8.486302 h -3.45806 V 56.479452 c 0,-1.821918 -0.14409,-3.356164 -1.92115,-3.979452 v -0.143836 h 5.23512 c 0,0.383562 0.048,4.123288 0.048,4.123288 1.29678,-3.308219 3.69821,-4.554794 5.57133,-4.554794 1.0086,0 2.06523,0.09589 3.12186,1.054794 -0.096,0.239726 -0.76846,2.445206 -0.91254,2.924658 -0.81649,-0.575343 -2.01721,-0.958904 -3.12187,-0.863014"/>
  <path style="fill:#000000;fill-rule:evenodd;stroke:none;stroke-width:1" inkscape:connector-curvature="0" id="path26" d="m 225.06237,65.493151 c 0,4.363013 -4.27456,5.561643 -6.57993,5.561643 -2.16129,0 -4.08244,-0.479452 -5.5233,-1.342465 V 66.5 c 1.58495,1.246575 3.50609,1.917808 5.5233,1.917808 2.25734,0 3.21792,-1.246575 3.26595,-2.445205 0.048,-1.246576 -0.76846,-2.157535 -2.16129,-2.828767 -1.20072,-0.575343 -2.44947,-1.198631 -3.12187,-1.534247 -1.58494,-0.863014 -3.41003,-2.061644 -3.41003,-4.60274 0,-3.787671 3.55412,-5.082191 6.1957,-5.082191 2.06523,0 3.6982,0.383561 4.94695,1.150684 v 2.972603 c -1.44086,-1.006849 -2.88172,-1.534246 -4.75484,-1.534246 -1.87312,0 -3.02581,0.719178 -3.02581,1.917808 -0.048,1.19863 0.76846,1.726027 1.72904,2.253425 0.91254,0.527397 2.0172,1.006849 3.45806,1.773972 1.681,0.910959 3.45807,2.157534 3.45807,5.034247"/>
  <path style="fill:#000000;fill-rule:evenodd;stroke:none;stroke-width:1" inkscape:connector-curvature="0" id="path28" d="m 267.85591,52.356164 -12.63154,27.328767 h -3.45806 l 5.71541,-12.321917 -5.47527,-11.171233 c -0.81649,-1.630137 -1.63297,-3.260274 -3.02581,-3.739726 v -0.143836 h 5.04302 l 5.23512,11.267123 5.13907,-11.267123 z"/>
  <path style="fill:#000000;fill-rule:evenodd;stroke:none;stroke-width:1" inkscape:connector-curvature="0" id="path30" d="m 50.286021,68.417808 c 1.440861,0 2.641578,-0.431507 3.842294,-1.150685 v 2.636987 c -1.248745,0.719178 -2.88172,1.150684 -4.274552,1.150684 -3.60215,0 -5.859498,-2.061643 -5.859498,-5.609589 V 54.993151 h -2.929749 l 6.339785,-7.095891 v 4.410959 h 5.763441 v 2.684932 H 47.404301 V 65.20548 c 0,2.39726 1.44086,3.212328 2.88172,3.212328"/>
  <path style="fill:#000000;fill-rule:nonzero;stroke:none;stroke-width:1" inkscape:connector-curvature="0" id="path32" d="m 58.643011,61.465753 c 0,3.979452 2.641577,6.90411 6.243727,6.90411 3.602151,0 6.243728,-2.924658 6.243728,-6.90411 0,-4.027397 -2.641577,-6.952054 -6.243728,-6.952054 -3.60215,0.04795 -6.243727,2.924657 -6.243727,6.952054 m -3.554122,0 c 0,-5.465753 4.226523,-9.589041 9.845878,-9.589041 5.715412,0 9.845878,4.027398 9.845878,9.589041 0,4.746576 -3.410036,9.589041 -9.893907,9.589041 -5.619355,0 -9.797849,-4.123287 -9.797849,-9.589041"/>
  <path style="fill:#000000;fill-rule:nonzero;stroke:none;stroke-width:1" inkscape:connector-curvature="0" id="path34" d="M 8.0688172,59.643836 12.67957,48.232877 17.530466,59.643836 Z M 22.141219,70.575342 h 3.842293 L 14.456631,43.630137 H 9.2215054 v 0.143836 c 1.4888886,0.719178 1.1046596,2.49315 0.144086,4.938356 L 0.33620072,70.575342 H 3.6982079 l 3.3620071,-8.29452 h 11.670968 z"/>
  <path style="fill:#000000;fill-rule:evenodd;stroke:none;stroke-width:1" inkscape:connector-curvature="0" id="path36" d="m 78.670968,56.431507 c 0,-1.821918 -0.144086,-3.356165 -1.921147,-3.979452 v -0.143836 h 5.091039 l 0.09606,2.828767 c 1.77706,-2.828767 4.370609,-3.308219 6.243727,-3.308219 1.44086,0 6.051613,0.479452 6.051613,6.952055 v 11.746575 h -3.458067 v -11.79452 c 0,-2.684932 -1.44086,-4.267124 -3.842293,-4.267124 -1.873119,0 -3.65018,1.198631 -4.850896,3.212329 v 12.849315 h -3.458065 l 0.04803,-14.09589"/>
  <path style="fill:#000000;fill-rule:evenodd;stroke:none;stroke-width:1" inkscape:connector-curvature="0" id="path38" d="m 39.623656,65.349315 c 0.04803,4.363014 -4.082437,5.705479 -6.435842,5.753425 -2.257348,0 -4.130466,-0.335617 -5.571326,-1.19863 v -3.260274 c 1.584946,1.19863 3.362007,1.821917 5.523297,1.773972 2.209319,-0.04794 3.169892,-1.29452 3.217921,-2.541096 0,-1.246575 -0.816487,-2.157534 -2.257348,-2.780822 -1.248745,-0.575342 -2.497491,-1.150685 -3.121863,-1.438356 -1.632975,-0.815068 -3.458065,-1.965753 -3.506094,-4.506849 -0.09606,-3.835617 3.602151,-5.178082 6.147671,-5.226027 2.065233,-0.04794 3.698208,0.287671 4.946953,1.054794 v 2.972603 c -1.488889,-0.958904 -2.785663,-1.390411 -4.70681,-1.390411 -1.873118,0 -3.025806,0.815068 -3.025806,2.013699 0,1.19863 0.816487,1.726027 1.77706,2.205479 0.912545,0.479452 2.065233,0.958904 3.506094,1.678082 1.681003,0.815069 3.506093,2.013699 3.506093,4.890411"/>
  <path style="fill:#000000;fill-rule:nonzero;stroke:none;stroke-width:1" inkscape:connector-curvature="0" id="path40" d="m 16.858064,93.061644 c 0,-0.767123 -0.576344,-1.19863 -1.632974,-1.19863 h -2.305377 v 2.445205 h 2.209319 c 1.056631,0.04794 1.729032,-0.383562 1.729032,-1.246575 z m 0.528316,3.883562 c 0,-0.767124 -0.624373,-1.246576 -1.873118,-1.246576 h -2.54552 v 2.493151 h 2.689606 c 1.05663,0.04794 1.729032,-0.383562 1.729032,-1.246575 z m 14.216487,-1.917809 c 1.152689,0 1.873119,-0.623287 1.873119,-1.534246 0,-1.00685 -0.72043,-1.534247 -1.921147,-1.534247 h -2.353405 v 3.068493 z m 61.95699,0.958904 h 3.169892 l -1.584946,-3.69178 z m 42.601433,-1.582191 3.98638,5.226027 h -1.96918 l -3.12186,-4.123288 -1.44086,1.486302 v 2.636986 h -1.63297 v -9.157534 h 1.63297 v 4.602739 l 4.37061,-4.602739 h 1.96918 z m -7.63656,1.29452 c 0,2.732877 -1.53692,4.123288 -3.93835,4.123288 -2.40143,0 -3.89032,-1.390411 -3.89032,-4.027397 v -5.273973 h 1.63297 v 5.226027 c 0,1.678082 0.86452,2.636987 2.30538,2.636987 1.44086,0 2.30538,-0.863014 2.30538,-2.541096 v -5.273973 h 1.63297 z m -16.66595,3.931507 h -1.63297 v -6.568493 l -2.88172,4.315068 h -0.048 l -2.88172,-4.315068 v 6.568493 h -1.58495 v -9.157534 h 1.72903 l 2.78567,4.363014 2.78566,-4.363014 h 1.72903 z m -11.91111,0 h -1.681003 l -0.912545,-2.20548 h -4.322581 l -0.960573,2.20548 h -1.632975 l 4.034408,-9.253425 h 1.488889 z m -12.487455,0 H 85.82724 v -3.883562 h -4.370609 v 3.883562 h -1.632975 v -9.157534 h 1.632975 v 3.835616 h 4.370609 v -3.835616 h 1.632975 z M 76.461649,98.383562 c -0.912545,0.767123 -2.209319,1.438356 -3.842294,1.438356 -2.881721,0 -4.754839,-2.061644 -4.754839,-4.746576 0,-2.589041 1.969176,-4.746575 4.754839,-4.746575 1.584946,0 2.593548,0.431507 3.554122,1.246575 l -1.008602,1.198631 c -0.720431,-0.623288 -1.392832,-0.958905 -2.593549,-0.958905 -1.681003,0 -2.977778,1.486302 -2.977778,3.260274 0,1.917809 1.248746,3.30822 3.121864,3.30822 0.864516,0 1.632975,-0.287672 2.209319,-0.671233 V 95.986301 H 72.523297 V 94.59589 h 3.890323 v 3.787672 z m -11.863083,1.246575 h -1.344803 l -5.04301,-6.520548 v 6.520548 h -1.584946 v -9.157534 h 1.488888 l 4.898925,6.328767 v -6.328767 h 1.584946 z m -11.767025,0 h -1.632975 v -9.157534 h 1.632975 z m -5.379211,0 h -1.632975 v -6.568493 l -2.881721,4.315068 h -0.04803 l -2.881719,-4.315068 v 6.568493 h -1.584946 v -9.157534 h 1.729032 l 2.785663,4.363014 2.785663,-4.363014 h 1.729033 z m -14.552688,-3.452055 2.497491,3.452055 h -1.921147 l -2.257348,-3.212329 h -2.017204 v 3.212329 h -1.632975 v -9.157534 h 4.082437 c 2.113262,0 3.410036,1.102739 3.410036,2.924657 0.04803,1.486302 -0.864516,2.445206 -2.16129,2.780822 z m -9.07742,3.452055 h -1.632975 v -9.157534 h 1.632975 z m -4.802867,-2.493151 c 0,1.630137 -1.344803,2.541096 -3.410036,2.541096 h -4.274552 v -9.157534 h 4.130466 c 1.873118,0 3.025806,0.910959 3.025806,2.349315 0,1.10274 -0.624372,1.678082 -1.296774,2.061644 1.056631,0.335616 1.82509,0.910959 1.82509,2.205479 z M 148.88889,84.287671 H 0.28817204 V 104.95206 H 148.88889 Z"/>
</svg>