<svg
  version="1.1"
  xmlns="http://www.w3.org/2000/svg"
  preserveAspectRatio="none"
  viewBox="0 0 557.09002 233.68999"
  width="557.09002"
  height="233.69">
  <g transform="translate(-153.59,-157.05)">
    <polygon points="259.7,247.96 340.62,157.05 170.16,188.25"
             style="fill:#83008f"/>
    <g>
      <path
        d="m 662.46,299.74 c 3.01,0 5.45,-0.88 8.03,-2.38 v 5.51 c -2.64,1.51 -6.02,2.35 -8.92,2.35 -7.53,0 -12.19,-4.27 -12.19,-11.72 v -21.76 h -6.11 l 13.23,-14.81 v 9.24 h 12.03 v 5.57 H 656.5 v 21.35 c -0.01,4.89 2.95,6.65 5.96,6.65"
      />
      <path
        d="m 420.02,248.01 v 34.44 c 0,7.3 -1.82,13.13 -6.02,17.35 v 0.01 c -3.63,3.7 -9.48,5.74 -16.77,5.74 -7.41,0 -13.31,-2.04 -16.93,-5.74 -4.15,-4.17 -5.94,-9.99 -5.94,-17.35 V 260.5 c 0,-6.35 -0.34,-10.64 -4.4,-12.17 v -0.31 h 12.42 v 34.44 c 0,5.67 1.12,9.97 3.93,12.78 2.66,2.67 6.38,4.09 11.08,4.09 4.59,0 8.38,-1.46 11.01,-4.09 2.81,-2.81 3.93,-7.11 3.93,-12.78 v -34.44 h 7.69 z"
      />
      <path
        d="m 430.85,274.72 c 0,-3.79 -0.33,-7.02 -3.99,-8.27 v -0.29 h 10.65 l 0.19,5.95 c 3.75,-5.86 9.11,-6.93 13.04,-6.93 2.96,0 12.59,1.04 12.59,14.48 v 24.56 h -7.2 v -24.64 c 0,-5.58 -3,-8.91 -8.02,-8.91 -3.9,0 -7.64,2.49 -10.05,6.74 v 26.81 h -7.2 v -29.5"
      />
      <path
        d="m 481.42,266.17 v 38.06 h -7.2 v -29.5 c 0,-3.79 -0.33,-7.02 -3.98,-8.27 v -0.29 z"
      />
      <path
        d="m 472.8,253 c 0,-2.46 2.01,-4.47 4.48,-4.47 2.51,0 4.55,2.01 4.55,4.47 0,2.55 -2,4.55 -4.55,4.55 -2.48,0 -4.48,-2.04 -4.48,-4.55"
      />
      <path
        d="m 637.37,266.17 v 38.06 h -7.2 v -29.5 c 0,-3.79 -0.33,-7.02 -3.99,-8.27 v -0.29 z"
      />
      <path
        d="m 628.74,253 c 0,-2.46 2.01,-4.47 4.48,-4.47 2.51,0 4.55,2.01 4.55,4.47 0,2.55 -2,4.55 -4.55,4.55 -2.47,0 -4.48,-2.04 -4.48,-4.55"
      />
      <path
        d="m 523.38,266.17 -16.45,38.23 h -2.45 l -13.59,-30.17 c -1.55,-3.42 -3.28,-6.79 -5.86,-7.76 v -0.3 h 9.99 l 8.84,20.71 c 0.46,1.07 1.59,3.72 2.2,6.06 0.54,-2.35 1.45,-4.72 2,-6.05 l 8.23,-20.72 z"
      />
      <path
        d="m 533.18,281.22 h 20.59 c -0.45,-6.71 -4.12,-10.63 -9.95,-10.63 -5.63,0 -9.83,4.09 -10.64,10.63 m -0.27,4.75 c 0.54,8.09 5.54,12.86 12.18,13.44 5.32,0.46 9.78,-0.8 13.5,-2.95 l 0.9,5.37 c -3.87,2.29 -8.66,3.39 -14.27,3.39 -11.61,0 -19.71,-8.23 -19.71,-19.99 0,-11.43 7.91,-20.04 18.41,-20.04 10.76,0 16.93,7.01 16.93,19.22 v 1.56 z"
      />
      <path
        d="m 586.16,271.78 c -6.3,0.44 -9.53,6.15 -9.53,14.76 v 17.69 h -7.2 v -29.51 c 0,-3.79 -0.33,-7.01 -3.98,-8.26 v -0.29 h 10.87 c 0.01,0.84 0.08,8.64 0.08,8.64 2.65,-6.93 7.66,-9.51 11.56,-9.51 2.07,0 4.33,0.25 6.51,2.19 -0.17,0.54 -1.59,5.12 -1.91,6.14 -1.6,-1.21 -4.02,-2.02 -6.4,-1.85"
      />
      <path
        d="m 621.59,293.61 c 0,9.09 -8.87,11.61 -13.75,11.61 -4.48,0 -8.47,-0.96 -11.48,-2.83 v -6.71 c 3.27,2.58 7.3,4.05 11.54,4.05 4.74,0 6.67,-2.65 6.78,-5.14 0.12,-2.61 -1.59,-4.5 -4.53,-5.94 -2.55,-1.25 -5.13,-2.51 -6.46,-3.2 -3.33,-1.75 -7.09,-4.33 -7.09,-9.62 0,-7.87 7.36,-10.56 12.93,-10.56 4.27,0 7.74,0.8 10.31,2.42 v 6.24 c -3.01,-2.11 -5.99,-3.16 -9.86,-3.16 -3.9,0 -6.26,1.52 -6.35,4.04 -0.08,2.49 1.64,3.61 3.62,4.72 1.88,1.06 4.22,2.09 7.19,3.66 3.51,1.84 7.15,4.37 7.15,10.42"
      />
      <path
        d="m 710.68,266.17 -26.3,57.04 h -7.18 l 11.88,-25.71 -11.4,-23.29 c -1.72,-3.44 -3.36,-6.84 -6.33,-7.76 v -0.29 h 10.54 l 10.95,23.49 10.73,-23.49 h 7.11 z"
      />
      <path
        d="m 257.67,299.71 c 3.01,0 5.45,-0.88 8.03,-2.36 v 5.49 c -2.64,1.51 -6.02,2.35 -8.92,2.35 -7.53,0 -12.19,-4.27 -12.19,-11.71 v -21.76 h -6.11 l 13.23,-14.82 v 9.25 h 12.03 v 5.57 H 251.7 v 21.35 c 0,4.9 2.95,6.64 5.97,6.64"
      />
      <path
        d="m 275.13,285.22 c 0,8.35 5.47,14.4 13.01,14.4 7.53,0 13,-6.06 13,-14.4 0,-8.38 -5.47,-14.46 -13,-14.46 -7.54,0 -13.01,6.08 -13.01,14.46 m -7.45,0 c 0,-11.42 8.79,-20.04 20.45,-20.04 11.85,0 20.45,8.43 20.45,20.04 0,9.92 -7.08,19.98 -20.62,19.98 -11.56,0 -20.28,-8.6 -20.28,-19.98"
      />
      <path
        d="m 169.78,281.38 9.58,-23.79 10.09,23.79 z m 29.36,22.83 h 7.96 l -24.01,-56.2 h -10.94 v 0.31 c 3.07,1.45 2.33,5.2 0.27,10.29 l -18.83,45.6 h 6.97 l 6.96,-17.26 h 24.27 z"
      />
      <path
        d="m 316.8,274.72 c 0,-3.79 -0.33,-7.02 -3.99,-8.27 v -0.29 h 10.64 l 0.2,5.95 c 3.74,-5.86 9.11,-6.93 13.03,-6.93 2.96,0 12.6,1.04 12.6,14.48 v 24.55 h -7.2 v -24.62 c 0,-5.58 -2.99,-8.91 -8.01,-8.91 -3.9,0 -7.64,2.49 -10.05,6.74 v 26.79 h -7.21 l -0.01,-29.49"
      />
      <path
        d="m 235.55,293.27 c 0.12,9.08 -8.51,11.91 -13.42,11.95 -4.68,0.04 -8.57,-0.74 -11.62,-2.53 V 296 c 3.33,2.48 7.04,3.78 11.48,3.73 4.62,-0.06 6.64,-2.68 6.69,-5.29 0.05,-2.62 -1.71,-4.46 -4.69,-5.82 -2.58,-1.18 -5.19,-2.38 -6.54,-3.03 -3.38,-1.67 -7.21,-4.15 -7.34,-9.44 -0.2,-7.96 7.46,-10.82 12.79,-10.9 4.27,-0.06 7.71,0.6 10.32,2.15 v 6.24 c -3.07,-2.03 -5.82,-2.94 -9.77,-2.91 -3.86,0.04 -6.32,1.69 -6.33,4.21 -0.02,2.48 1.73,3.56 3.74,4.62 1.9,1.01 4.26,1.98 7.28,3.47 3.55,1.76 7.33,4.22 7.41,10.24"
      />
      <path
        d="m 200.02,357.46 c 0,-2.09 -1.61,-3.3 -4.51,-3.3 H 189 v 6.83 h 6.17 c 2.9,0 4.85,-1.14 4.85,-3.53 m 1.43,10.84 c 0,-2.21 -1.73,-3.49 -5.29,-3.49 H 189 v 7.05 h 7.49 c 3.09,0 4.96,-1.21 4.96,-3.56 m 39.75,-5.4 c 3.23,0 5.29,-1.68 5.29,-4.33 0,-2.83 -1.98,-4.3 -5.33,-4.3 h -6.57 v 8.63 z m 173.45,2.76 h 8.85 l -4.44,-10.29 z m 119.3,-4.45 11.17,14.65 h -5.47 l -8.78,-11.57 -4.01,4.12 v 7.45 h -4.51 v -25.71 h 4.51 v 12.93 l 12.23,-12.93 h 5.54 z m -21.49,3.53 c 0,7.67 -4.33,11.53 -11.05,11.53 -6.69,0 -10.95,-3.86 -10.95,-11.31 v -14.81 h 4.51 v 14.62 c 0,4.77 2.46,7.34 6.51,7.34 4,0 6.46,-2.42 6.46,-7.16 v -14.81 h 4.51 v 14.6 z m -46.57,11.12 h -4.51 v -18.43 l -8.12,12.12 h -0.14 l -8.05,-12.04 v 18.36 h -4.44 v -25.71 h 4.81 l 7.82,12.17 7.83,-12.17 h 4.81 v 25.7 z m -33.36,0 h -4.77 l -2.61,-6.2 H 413 l -2.65,6.2 h -4.63 l 11.31,-25.89 h 4.19 z m -34.89,0 h -4.51 v -10.83 h -12.27 v 10.83 h -4.52 v -25.71 h 4.52 v 10.69 h 12.27 v -10.69 h 4.51 z m -30.85,-3.56 c -2.54,2.17 -6.17,4.01 -10.73,4.01 -8.04,0 -13.34,-5.73 -13.34,-13.26 0,-7.24 5.51,-13.34 13.26,-13.34 4.48,0 7.24,1.25 9.88,3.49 l -2.86,3.42 c -1.98,-1.69 -3.93,-2.76 -7.2,-2.76 -4.74,0 -8.34,4.11 -8.34,9.1 0,5.33 3.49,9.22 8.75,9.22 2.42,0 4.62,-0.77 6.21,-1.94 v -4.81 h -6.57 v -3.93 h 10.95 v 10.8 z m -33.22,3.56 h -3.78 l -14.17,-18.29 v 18.29 h -4.45 v -25.71 h 4.19 l 13.78,17.78 v -17.78 h 4.44 v 25.71 z m -32.94,0 h -4.51 v -25.71 h 4.51 z m -15.06,0 h -4.52 v -18.43 l -8.12,12.12 h -0.15 l -8.04,-12.04 v 18.36 h -4.45 v -25.71 h 4.81 l 7.83,12.17 7.83,-12.17 h 4.81 z m -40.63,-9.73 6.95,9.73 h -5.33 l -6.32,-8.95 h -5.66 v 8.95 h -4.51 v -25.71 h 11.46 c 5.91,0 9.54,3.13 9.54,8.16 0,4.25 -2.53,6.84 -6.13,7.82 m -25.41,9.73 h -4.51 v -25.71 h 4.51 z m -13.56,-7.09 c 0,4.63 -3.78,7.09 -9.51,7.09 h -11.9 v -25.71 h 11.54 c 5.18,0 8.45,2.54 8.45,6.58 0,3.15 -1.77,4.77 -3.68,5.77 3.01,1.03 5.1,2.75 5.1,6.27 M 569.52,332.8 H 153.6 v 57.94 h 415.92 z"
      />
    </g>
  </g>
</svg>
